<?xml version="1.0" encoding="utf-8"?>
<!-- Generator: Adobe Illustrator 27.0.0, SVG Export Plug-In . SVG Version: 6.00 Build 0)  -->
<svg version="1.1" id="Layer_1" xmlns="http://www.w3.org/2000/svg" xmlns:xlink="http://www.w3.org/1999/xlink" x="0px" y="0px"
	 viewBox="0 0 100 100" style="enable-background:new 0 0 100 100;" xml:space="preserve">
<style type="text/css">
	.st0{fill:#272628;}
	.st1{fill:#FFFFFF;}
	.st2Cosmopolitan{fill:#E84771;}
	.st3{fill:#F7B917;}
</style>
<g>
	<g>
		<path class="st0" d="M73.64,85.56c-0.35-0.25-8.59-6.21-21.07-6.21c-7.32,0-14.57,2.07-21.54,6.16c-0.25,0.15-0.42,0.41-0.45,0.69
			c-0.02,0.29,0.09,0.58,0.31,0.77c0.36,0.32,8.95,7.72,21.48,7.73c7.36,0,14.52-2.59,21.28-7.69c0.23-0.17,0.36-0.44,0.36-0.72
			C74,86,73.87,85.73,73.64,85.56z M62.11,91.24c-3.2,1.1-6.45,1.65-9.74,1.65c-9.44,0-16.68-4.59-19.26-6.48
			c6.33-3.48,12.87-5.25,19.46-5.25c9.38,0,16.38,3.63,18.94,5.18C68.44,88.51,65.3,90.15,62.11,91.24z"/>
		<path class="st1" d="M71.51,86.34c-3.07,2.17-6.21,3.81-9.4,4.9c-3.2,1.1-6.45,1.65-9.74,1.65c-9.44,0-16.68-4.59-19.26-6.48
			c6.33-3.48,12.87-5.25,19.46-5.25C61.95,81.16,68.95,84.79,71.51,86.34z"/>
	</g>
	<g>
		<path class="st0" d="M52.29,87.93c-0.5,0-0.9-0.4-0.9-0.9V58.62c0-0.5,0.4-0.9,0.9-0.9s0.9,0.4,0.9,0.9v28.41
			C53.2,87.52,52.79,87.93,52.29,87.93z"/>
	</g>
	<g>
		<path class="st0" d="M52.29,59.52C52.29,59.52,52.29,59.52,52.29,59.52c-0.3,0-0.56-0.14-0.73-0.37L23.85,20.92
			c-0.29-0.4-0.2-0.97,0.2-1.26c0.41-0.29,0.97-0.2,1.26,0.2L52.31,57.1l28.15-37.25c0.3-0.4,0.87-0.48,1.27-0.18
			c0.4,0.3,0.48,0.87,0.18,1.27L53.01,59.16C52.84,59.39,52.58,59.52,52.29,59.52z"/>
	</g>
	<g>
		<path class="st0" d="M82.06,20.6c-0.03,0.14-0.09,0.27-0.19,0.38L53.01,59.16c-0.17,0.23-0.43,0.36-0.72,0.36c0,0,0,0-0.01,0
			c-0.28,0-0.55-0.14-0.72-0.37L23.9,20.99l-0.05-0.07c-0.11-0.15-0.17-0.34-0.17-0.52c0-0.08,0.01-0.15,0.03-0.22
			c0.02-0.09,0.05-0.17,0.1-0.24c0.03-0.07,0.08-0.13,0.14-0.19c0.01-0.01,0.02-0.02,0.03-0.02c0.02-0.03,0.04-0.05,0.07-0.07
			c0.03-0.02,0.06-0.04,0.09-0.05c0.03-0.02,0.05-0.03,0.08-0.04c0.05-0.03,0.1-0.05,0.16-0.06c0.01,0,0.03-0.01,0.04-0.01
			s0.01,0,0.02,0c0.33-0.05,0.67,0.08,0.88,0.36l2.93,4.04l24.06,33.2l24.67-32.65l3.48-4.6c0.2-0.27,0.53-0.39,0.84-0.35
			c0.04,0,0.06,0.01,0.06,0.01c0.08,0.02,0.16,0.04,0.24,0.08c0,0,0,0,0.01,0.01c0.04,0.02,0.08,0.04,0.12,0.07
			c0.02,0.01,0.03,0.03,0.05,0.05c0.02,0.01,0.05,0.04,0.07,0.07c0.05,0.05,0.09,0.11,0.13,0.17c0.03,0.07,0.06,0.14,0.08,0.22
			c0,0.01,0,0.03,0,0.04C82.08,20.35,82.09,20.48,82.06,20.6z"/>
	</g>
	<polygon class="st2Cosmopolitan" points="62.7,35.22 52.39,48.86 42.5,35.22 	"/>
	<g>
		<path class="st0" d="M81.98,19.96c-0.04-0.06-0.08-0.12-0.13-0.17c-0.02-0.03-0.05-0.06-0.07-0.07c-0.05-0.05-0.11-0.09-0.17-0.12
			c-0.01-0.01-0.01-0.01-0.01-0.01c-0.08-0.04-0.16-0.06-0.24-0.08c0,0-0.02-0.01-0.06-0.01c-0.95-0.19-12.76-2.42-28.81-2.42
			c-4.39,0-8.71,0.16-12.93,0.5c-0.69,0.04-1.37,0.1-2.05,0.17c-4.48,0.4-8.85,0.98-13.07,1.75c-0.01,0-0.01,0-0.02,0
			s-0.03,0.01-0.04,0.01c-0.06,0.01-0.11,0.03-0.16,0.06c-0.03,0.01-0.05,0.02-0.08,0.04c-0.06,0.03-0.11,0.06-0.16,0.12
			c-0.01,0-0.02,0.01-0.03,0.02c-0.06,0.06-0.11,0.12-0.14,0.19c-0.05,0.07-0.08,0.15-0.1,0.24c-0.02,0.07-0.03,0.14-0.03,0.22
			c0,0.18,0.06,0.37,0.17,0.52l0.05,0.07c0.04,0.04,0.08,0.08,0.12,0.11c0.17,0.14,1.68,1.31,4.23,2.8
			c3.83,2.26,10.02,5.24,17.63,6.59c0.78,0.15,1.58,0.27,2.4,0.37c1.82,0.23,3.7,0.36,5.65,0.36c8.13,0,15.86-2.27,23.05-6.77
			c1.62-1,3.2-2.12,4.76-3.35c0.05-0.04,0.09-0.08,0.13-0.12c0.1-0.11,0.16-0.24,0.19-0.38c0.03-0.14,0.03-0.28,0-0.42
			C82.04,20.1,82.01,20.03,81.98,19.96z M66.9,27.28c-4.19,1.42-8.52,2.13-12.97,2.13c-2.42,0-4.76-0.21-6.98-0.58
			c-0.84-0.14-1.67-0.3-2.47-0.47c-8.25-1.82-14.66-5.53-17.59-7.45c3.82-0.63,7.74-1.11,11.75-1.44c0.68-0.07,1.37-0.12,2.06-0.16
			c3.86-0.28,7.8-0.42,11.79-0.42c12.53,0,22.42,1.37,26.5,2.03C75.12,23.74,71.08,25.86,66.9,27.28z"/>
		<path class="st1" d="M78.99,20.92c-3.87,2.82-7.91,4.94-12.09,6.36c-4.19,1.42-8.52,2.13-12.97,2.13c-12.7,0-23.06-5.89-27.04-8.5
			c8.11-1.34,16.71-2.02,25.6-2.02C65.02,18.89,74.91,20.26,78.99,20.92z"/>
	</g>
	<g>
		<path class="st1" d="M76.98,24.45L52.31,57.1L28.25,23.9c3.83,2.26,10.02,5.24,17.63,6.59l3.11,4.73H42.5l9.89,13.64L62.7,35.22
			H51.15l-2.87-4.36c1.82,0.23,3.7,0.36,5.65,0.36C62.06,31.22,69.79,28.95,76.98,24.45z"/>
		<path class="st0" d="M53.38,40.26c-0.15,0.1-0.33,0.15-0.5,0.15c-0.29,0-0.58-0.14-0.75-0.41l-3.14-4.78l-3.11-4.73l-1.4-2.13
			l-5.84-8.89l-1.13-1.72L28.35,3.81c-0.27-0.42-0.16-0.98,0.26-1.25c0.42-0.27,0.98-0.16,1.25,0.26l9.7,14.76l1.14,1.73l6.25,9.52
			l1.33,2.03l2.87,4.36l2.49,3.79C53.91,39.43,53.8,39.99,53.38,40.26z"/>
	</g>
</g>
<g>
	<path class="st3" d="M71,10.54c-3.44,1.09-5.84,3.92-6.55,7.21l18.97,4.17c0.36-1.62,0.32-3.36-0.21-5.05
		C81.58,11.75,76.11,8.91,71,10.54z"/>
	<g>
		<g>
			<path class="st0" d="M73.94,20.4c-0.25,0-0.49-0.16-0.57-0.41L69.66,8.54c-0.1-0.31,0.07-0.65,0.38-0.75
				c0.31-0.1,0.65,0.07,0.75,0.38l3.71,11.44c0.1,0.31-0.07,0.65-0.38,0.75C74.06,20.39,74,20.4,73.94,20.4z"/>
		</g>
		<g>
			<path class="st0" d="M73.94,20.4c-0.14,0-0.29-0.05-0.4-0.15c-0.24-0.22-0.26-0.6-0.04-0.84l8.04-8.86
				c0.22-0.24,0.6-0.26,0.84-0.04c0.24,0.22,0.26,0.6,0.04,0.84l-8.04,8.86C74.26,20.33,74.1,20.4,73.94,20.4z"/>
		</g>
		<g>
			<path class="st0" d="M85.61,23c-0.04,0-0.09,0-0.13-0.01L62,17.82c-0.32-0.07-0.53-0.39-0.46-0.71c0.07-0.32,0.39-0.53,0.71-0.46
				l23.49,5.16c0.32,0.07,0.53,0.39,0.46,0.71C86.13,22.81,85.89,23,85.61,23z"/>
		</g>
	</g>
	<g>
		<path class="st0" d="M85.61,23c-0.04,0-0.09,0-0.13-0.01L62,17.82c-0.15-0.03-0.29-0.13-0.38-0.26c-0.09-0.13-0.11-0.3-0.08-0.45
			c0.24-1.1,0.62-2.15,1.11-3.1c2.18-4.21,6.48-6.82,11.22-6.82c2,0,4.01,0.49,5.8,1.42c5.06,2.62,7.74,8.34,6.51,13.91
			C86.13,22.81,85.88,23,85.61,23z M62.86,16.79l22.28,4.9c0.8-4.85-1.61-9.73-6.01-12.01c-1.62-0.84-3.44-1.28-5.25-1.28
			c-4.29,0-8.19,2.37-10.16,6.17C63.36,15.25,63.07,16,62.86,16.79z"/>
	</g>
</g>
</svg>
