<?xml version="1.0" encoding="utf-8"?>
<!-- Generator: Adobe Illustrator 27.0.0, SVG Export Plug-In . SVG Version: 6.00 Build 0)  -->
<svg version="1.1" id="Layer_1" xmlns="http://www.w3.org/2000/svg" xmlns:xlink="http://www.w3.org/1999/xlink" x="0px" y="0px"
	 viewBox="0 0 100 100" style="enable-background:new 0 0 100 100;" xml:space="preserve">
<style type="text/css">
	.st0{fill:#272628;}
	.st1{fill:#FFFFFF;}
	.st2{fill:#D7DDDC;}
</style>
<g>
	<g>
		<path class="st0" d="M73.18,83.15c-0.36-0.26-8.86-6.41-21.79-6.65c-0.26-0.01-0.52-0.01-0.79-0.01c-0.46,0-0.92,0.01-1.38,0.03
			c-7.37,0.24-14.67,2.45-21.69,6.57c-0.3,0.17-0.5,0.48-0.54,0.83c-0.03,0.35,0.11,0.69,0.37,0.92c0.38,0.34,9.6,8.28,23.02,8.28
			c7.89,0,15.57-2.77,22.81-8.23c0.27-0.21,0.43-0.53,0.43-0.87C73.62,83.67,73.45,83.35,73.18,83.15z M60.68,89.22
			c-3.38,1.15-6.82,1.73-10.3,1.73c-9.87,0-17.49-4.71-20.35-6.79c6.25-3.41,12.68-5.25,19.19-5.48c0.46-0.01,0.92-0.02,1.38-0.02
			c0.27,0,0.53,0,0.79,0.01c9.43,0.19,16.47,3.77,19.23,5.41C67.38,86.36,64.06,88.08,60.68,89.22z"/>
		<path class="st1" d="M70.62,84.08c-3.24,2.28-6.56,4-9.94,5.14c-3.38,1.15-6.82,1.73-10.3,1.73c-9.87,0-17.49-4.71-20.35-6.79
			c6.25-3.41,12.68-5.25,19.19-5.48v6.13c0,0.6,0.49,1.08,1.08,1.08c0.6,0,1.09-0.48,1.09-1.08v-6.14
			C60.82,78.86,67.86,82.44,70.62,84.08z"/>
	</g>
	<g>
		<path class="st0" d="M51.39,54.8v30.01c0,0.6-0.49,1.08-1.09,1.08c-0.59,0-1.08-0.48-1.08-1.08V54.8c0-0.6,0.49-1.09,1.08-1.09
			C50.9,53.71,51.39,54.2,51.39,54.8z"/>
	</g>
	<g>
		<path class="st0" d="M91.83,8.54c-0.02-0.06-0.04-0.11-0.07-0.16c0.01-0.01,0-0.01,0-0.01c-0.03-0.04-0.06-0.08-0.09-0.12
			c-0.03-0.05-0.06-0.09-0.11-0.13c-0.03-0.03-0.06-0.05-0.09-0.07c-0.05-0.04-0.1-0.08-0.15-0.1c-0.07-0.04-0.15-0.07-0.23-0.09
			c-0.01-0.01-0.02-0.01-0.04-0.01c-0.07-0.02-0.16-0.03-0.24-0.03c0,0,0,0-0.01,0h-81c-0.46,0-0.87,0.29-1.03,0.72
			C8.69,8.76,8.69,8.99,8.76,9.2c0.05,0.21,0.17,0.4,0.35,0.54c0.03,0.02,0.46,0.38,1.27,0.96c4.56,3.29,20.94,13.96,41.42,13.96
			c0.01,0,0.01,0,0.01,0c13.82,0,26.84-4.76,38.73-14.16c0.32-0.24,0.64-0.5,0.96-0.76C91.85,9.45,91.99,8.97,91.83,8.54z
			 M51.81,22.5H51.8c-17.1-0.01-31.27-7.7-37.65-11.84c-0.36-0.24-0.69-0.46-1-0.67h74.52C87.66,10,87.65,10,87.64,10.01
			C76.57,18.3,64.53,22.5,51.81,22.5z"/>
	</g>
	<g>
		<path class="st0" d="M91.76,8.38c0.01-0.01,0-0.01,0-0.01c-0.02-0.04-0.04-0.06-0.05-0.08c-0.01-0.01-0.02-0.03-0.04-0.04
			c-0.03-0.05-0.06-0.09-0.11-0.13c-0.03-0.03-0.06-0.05-0.09-0.07c-0.05-0.04-0.1-0.08-0.15-0.1c-0.07-0.04-0.15-0.07-0.23-0.09
			c-0.01-0.01-0.02-0.01-0.04-0.01c-0.07-0.02-0.16-0.03-0.24-0.03c0,0,0,0-0.01,0L9.79,8.53C9.43,8.53,9.1,8.7,8.9,8.99
			C8.88,9.02,8.83,9.09,8.76,9.2C7.39,11.26-2.46,26.87,4.28,39.72c5.55,10.56,20.66,16,44.94,16.15c0.36,0.01,0.72,0.01,1.08,0.01
			c0.37,0,0.73,0,1.09-0.01c24.15-0.15,39.23-5.61,44.85-16.23C103.31,26.28,92.76,9.87,91.76,8.38z M94.33,38.63
			c-5.3,10.01-20.11,15.08-44.03,15.08c-24.03,0-38.87-5.04-44.1-14.99C0.35,27.58,8.64,13.44,10.38,10.7
			c0.01,0,0.01-0.01,0.01-0.01l3.76-0.03l73.49-0.65l2.59-0.02c0.09,0.14,0.19,0.31,0.31,0.51C92.78,14.24,100.04,27.84,94.33,38.63
			z"/>
		<path class="st1" d="M87.64,10.01C76.57,18.3,64.53,22.5,51.81,22.5H51.8c-17.1-0.01-31.27-7.7-37.65-11.84L87.64,10.01z"/>
		<path class="st1" d="M90.54,10.5c-11.89,9.4-24.91,14.16-38.73,14.16c0,0,0,0-0.01,0c-20.48,0-36.86-10.67-41.42-13.96
			C8.64,13.44,0.35,27.58,6.2,38.72c5.23,9.95,20.07,14.99,44.1,14.99c23.92,0,38.73-5.07,44.03-15.08
			C100.04,27.84,92.78,14.24,90.54,10.5z M89.11,35.91c-4.1,7.69-17.88,11.93-38.81,11.93c-21.07,0-34.88-4.21-38.9-11.86
			c-1.31-2.49-1.56-5.39-1.24-8.28h15.75l0.59-0.84c0.7-1.01,1.86-1.61,3.1-1.61c0.77,0,1.52,0.23,2.16,0.68l2.52,1.77H61.9
			l0.99-1.41c0.89-1.28,2.36-2.04,3.92-2.04c0.99,0,1.94,0.3,2.75,0.87l3.36,2.35c0.1,0.07,0.2,0.15,0.3,0.23H90.5
			C90.75,30.57,90.44,33.43,89.11,35.91z"/>
	</g>
	<path class="st2" d="M89.11,35.91c-4.1,7.69-17.88,11.93-38.81,11.93c-21.07,0-34.88-4.21-38.9-11.86
		c-1.31-2.49-1.56-5.39-1.24-8.28H90.5C90.75,30.57,90.44,33.43,89.11,35.91z"/>
	<g>
		<path class="st0" d="M74.89,30.56c-0.2-1.14-0.79-2.14-1.67-2.86c-0.1-0.08-0.2-0.16-0.3-0.23l-3.36-2.35
			c-0.81-0.57-1.76-0.87-2.75-0.87c-1.56,0-3.03,0.76-3.92,2.04L61.9,27.7l-1.37,1.96c-0.73,1.04-1.01,2.31-0.79,3.57
			c0.22,1.26,0.92,2.36,1.97,3.09l3.36,2.36c0.81,0.56,1.76,0.86,2.74,0.86c1.57,0,3.03-0.76,3.93-2.04l2.35-3.36
			C74.83,33.09,75.11,31.82,74.89,30.56z M72.32,32.9l-2.36,3.36c-0.79,1.14-2.5,1.44-3.65,0.64l-3.36-2.35
			c-0.57-0.4-0.95-1-1.08-1.69c-0.12-0.69,0.04-1.39,0.44-1.96l2.24-3.2l0.11-0.16c0.49-0.7,1.3-1.12,2.15-1.12
			c0.54,0,1.06,0.16,1.5,0.47l1.16,0.81l2.21,1.55c0.57,0.4,0.95,1,1.07,1.69S72.72,32.32,72.32,32.9z"/>
	</g>
	<g>
		<path class="st0" d="M48.65,44.2c-0.7,0-1.37-0.15-2.01-0.44l-3.73-1.72c-1.16-0.54-2.04-1.49-2.49-2.69
			c-0.44-1.2-0.39-2.5,0.15-3.66l1.72-3.73c0.78-1.69,2.49-2.78,4.35-2.78c0.69,0,1.37,0.15,2,0.44l3.73,1.72
			c1.16,0.54,2.04,1.49,2.49,2.69c0.44,1.2,0.39,2.5-0.15,3.66L53,41.42C52.22,43.11,50.52,44.2,48.65,44.2z M46.65,31.35
			c-1.02,0-1.95,0.6-2.38,1.52l-1.72,3.73c-0.29,0.64-0.32,1.35-0.08,2c0.24,0.66,0.72,1.18,1.36,1.47l3.73,1.72
			c1.28,0.59,2.89-0.01,3.48-1.28l1.72-3.73c0.29-0.64,0.32-1.35,0.08-2c-0.24-0.66-0.72-1.18-1.36-1.47l-3.73-1.72
			C47.4,31.43,47.03,31.35,46.65,31.35z"/>
	</g>
	<g>
		<path class="st0" d="M63.5,43.02c-0.12,0.49-0.39,0.92-0.77,1.24l-1.58,1.36c-0.49,0.43-1.12,0.63-1.77,0.59
			c-0.65-0.05-1.24-0.34-1.67-0.84l-1.37-1.58c-0.52-0.6-0.71-1.42-0.52-2.19c0.12-0.49,0.39-0.92,0.77-1.24L58.18,39
			c0.49-0.43,1.12-0.63,1.77-0.59c0.65,0.05,1.24,0.34,1.67,0.84l1.36,1.58C63.5,41.43,63.69,42.25,63.5,43.02z M56.9,41.88
			c-0.11,0.42,0,0.87,0.28,1.2l1.36,1.58c0.23,0.27,0.56,0.43,0.91,0.46c0.36,0.03,0.7-0.09,0.97-0.32l1.58-1.37
			c0.54-0.47,0.6-1.34,0.14-1.88l-1.36-1.58c-0.23-0.27-0.56-0.43-0.91-0.46c-0.36-0.03-0.7,0.09-0.97,0.32l-1.58,1.37
			C57.11,41.38,56.97,41.62,56.9,41.88z"/>
	</g>
	<g>
		<path class="st0" d="M38.52,42.88c-0.1,0.39-0.31,0.73-0.61,0.99l-1.25,1.08c-0.39,0.34-0.89,0.5-1.4,0.47
			c-0.52-0.04-0.98-0.27-1.32-0.66l-1.08-1.25c-0.41-0.48-0.57-1.13-0.41-1.74c0.1-0.39,0.31-0.73,0.61-0.99l1.25-1.08
			c0.39-0.34,0.89-0.5,1.4-0.47c0.52,0.04,0.98,0.27,1.32,0.66l1.08,1.25C38.52,41.62,38.68,42.27,38.52,42.88z M33.28,41.97
			c-0.08,0.34,0,0.69,0.22,0.95l1.08,1.25c0.18,0.21,0.44,0.34,0.72,0.36c0.28,0.02,0.55-0.07,0.77-0.25l1.25-1.08
			c0.43-0.37,0.48-1.07,0.11-1.49l-1.08-1.25c-0.18-0.21-0.44-0.34-0.72-0.36c-0.28-0.02-0.55,0.07-0.77,0.25l-1.25,1.08
			C33.45,41.57,33.34,41.76,33.28,41.97z"/>
	</g>
	<g>
		<path class="st0" d="M35.97,30.23c-0.18-1-0.73-1.86-1.56-2.44l-0.13-0.09l-2.52-1.77c-0.64-0.45-1.39-0.68-2.16-0.68
			c-1.24,0-2.4,0.6-3.1,1.61l-0.59,0.84l-1.27,1.81c-0.58,0.83-0.8,1.83-0.63,2.83c0.18,0.99,0.73,1.86,1.56,2.44l2.65,1.85
			c0.64,0.45,1.39,0.69,2.17,0.69c1.23,0,2.39-0.61,3.09-1.61l1.86-2.66C35.92,32.22,36.14,31.22,35.97,30.23z M33.94,32.07
			l-1.86,2.65c-0.63,0.91-1.97,1.15-2.88,0.51l-2.65-1.86c-0.46-0.31-0.76-0.79-0.85-1.33c-0.1-0.55,0.02-1.09,0.34-1.55l1.86-2.65
			c0.03-0.05,0.07-0.09,0.11-0.14c0.38-0.47,0.97-0.74,1.59-0.74c0.42,0,0.83,0.13,1.18,0.37l0.53,0.37l2.12,1.49
			c0.46,0.32,0.76,0.79,0.85,1.33C34.38,31.07,34.26,31.62,33.94,32.07z"/>
	</g>
</g>
</svg>
