<?xml version="1.0" encoding="utf-8"?>
<!-- Generator: Adobe Illustrator 27.0.0, SVG Export Plug-In . SVG Version: 6.00 Build 0)  -->
<svg version="1.1" id="Layer_1" xmlns="http://www.w3.org/2000/svg" xmlns:xlink="http://www.w3.org/1999/xlink" x="0px" y="0px"
	 viewBox="0 0 100 100" style="enable-background:new 0 0 100 100;" xml:space="preserve">
<style type="text/css">
	.st0Negroni{fill:#272628;}
	.st1Negroni{fill:#FFFFFF;}
	.st2Negroni{fill:#F68A1F;}
	.st3Negroni{fill:#ED6823;}
</style>
<g>
	<g>
		<path class="st0Negroni" d="M99.98,27.18c-0.01-0.06-0.03-0.12-0.05-0.18s-0.04-0.11-0.07-0.16c-0.03-0.06-0.07-0.11-0.11-0.16
			c-0.07-0.1-0.17-0.18-0.28-0.25c-0.11-0.07-0.23-0.11-0.35-0.14h-0.01c-0.01,0-0.01,0-0.02,0c-0.07-0.01-0.13-0.03-0.2-0.03H23.42
			c-0.03,0-0.06,0.01-0.1,0.02c-0.01-0.01-0.01-0.01-0.02,0s-0.02,0.01-0.03,0.01h-0.05c-0.01,0-0.01,0-0.02,0
			c-0.07,0.01-0.13,0.03-0.19,0.05c-0.01,0-0.01,0-0.01,0c-0.06,0.03-0.11,0.06-0.16,0.09c-0.06,0.03-0.11,0.07-0.15,0.11
			c-0.03,0.02-0.06,0.05-0.09,0.1c-0.1,0.09-0.18,0.22-0.23,0.36c-0.06,0.18-0.08,0.39-0.04,0.59l0.01,0.07
			c0.06,0.22,0.19,0.42,0.37,0.58c0.78,0.64,1.57,1.26,2.37,1.85c10.7,8.01,22.35,12.07,34.67,12.07c17.9,0,32.09-8.45,37.49-12.19
			c1.4-0.97,2.21-1.62,2.35-1.73c0.19-0.16,0.33-0.38,0.38-0.62l0.01-0.03c0.01-0.06,0.02-0.12,0.02-0.18
			C100,27.33,100,27.26,99.98,27.18z M59.75,39.93c-11.74,0-22.86-3.84-33.1-11.44h68.79C89.86,32.22,76.3,39.93,59.75,39.93z"/>
		<path class="st1Negroni" d="M95.44,28.49c-5.58,3.73-19.14,11.44-35.69,11.44c-11.74,0-22.86-3.84-33.1-11.44H95.44z"/>
	</g>
	<g>
		<path class="st1Negroni" d="M97.24,29.97L84.02,96.31H38.03L25.08,30.09c10.7,8.01,22.35,12.07,34.67,12.07
			C77.65,42.16,91.84,33.71,97.24,29.97z"/>
		<path class="st0Negroni" d="M100,27.41c0,0.06-0.01,0.12-0.02,0.18l-0.01,0.03L86.02,97.64c-0.1,0.52-0.56,0.89-1.09,0.89H37.11
			c-0.53,0-0.98-0.37-1.09-0.9L22.34,27.66l-0.01-0.07c-0.04-0.2-0.02-0.41,0.04-0.59c0.05-0.14,0.13-0.27,0.23-0.36
			c0.03-0.05,0.06-0.08,0.09-0.1c0.04-0.04,0.09-0.08,0.15-0.11c0.05-0.03,0.1-0.06,0.16-0.09c0,0,0,0,0.01,0
			c0.06-0.02,0.12-0.04,0.19-0.05c0.01,0,0.01,0,0.02,0c0.03-0.01,0.05-0.01,0.08-0.01c0.01-0.01,0.01-0.01,0.02,0
			c0.56-0.07,1.08,0.32,1.19,0.88l0.57,2.93l12.95,66.22h45.99l13.22-66.34l0.56-2.81c0.12-0.59,0.69-0.99,1.29-0.87
			c0.01,0,0.01,0,0.02,0h0.01c0.13,0.03,0.24,0.08,0.35,0.14c0.11,0.07,0.21,0.15,0.28,0.25c0.04,0.05,0.08,0.1,0.11,0.16
			c0.03,0.05,0.05,0.1,0.07,0.16s0.04,0.12,0.05,0.18C100,27.26,100,27.33,100,27.41z"/>
	</g>
	<polygon class="st2Negroni" points="35.63,52.65 42.99,90.29 79.08,90.29 86.58,52.65 	"/>
	<g>
		<path class="st0Negroni" d="M59.84,87.89c-1.84,0-3.61-0.56-5.13-1.62l-6.64-4.65c-4.04-2.83-5.02-8.42-2.2-12.46l4.65-6.64
			c1.67-2.39,4.41-3.81,7.33-3.81c1.84,0,3.61,0.56,5.12,1.62l6.64,4.65c1.96,1.37,3.26,3.42,3.68,5.77
			c0.41,2.35-0.11,4.73-1.48,6.68l-4.65,6.64C65.5,86.46,62.76,87.89,59.84,87.89z M57.87,61.98c-1.85,0-3.6,0.9-4.66,2.42
			l-4.65,6.64c-1.8,2.56-1.17,6.11,1.39,7.91l6.64,4.65c0.96,0.67,2.08,1.03,3.25,1.03c1.85,0,3.59-0.91,4.66-2.42l4.65-6.64
			c0.87-1.24,1.2-2.75,0.94-4.24c-0.26-1.49-1.09-2.8-2.34-3.67l-6.64-4.65C60.16,62.34,59.03,61.98,57.87,61.98z"/>
	</g>
	<path class="st3Negroni" d="M34.7,26.21c-1.32,8.08-8.95,13.56-17.03,12.23C9.58,37.12,4.11,29.5,5.43,21.41
		c1.32-8.08,8.95-13.56,17.03-12.23C30.54,10.51,36.02,18.13,34.7,26.21z"/>
	<g>
		<g>
			<path class="st0Negroni" d="M19.98,43.26c-1.05,0-2.12-0.09-3.17-0.26C6.22,41.26-0.98,31.24,0.76,20.65
				c1.55-9.45,9.62-16.32,19.18-16.32c1.05,0,2.12,0.09,3.17,0.26C33.7,6.33,40.9,16.36,39.16,26.94
				C37.61,36.4,29.55,43.26,19.98,43.26z M19.94,6.56c-8.47,0-15.62,6.08-16.99,14.45c-1.54,9.38,4.84,18.26,14.22,19.8
				c0.93,0.15,1.88,0.23,2.81,0.23c8.47,0,15.62-6.08,16.99-14.45c1.54-9.38-4.84-18.26-14.22-19.8
				C21.82,6.63,20.87,6.56,19.94,6.56z"/>
		</g>
		<g>
			<path class="st0Negroni" d="M16.99,43c-0.06,0-0.12,0-0.18-0.01c-0.61-0.1-1.02-0.67-0.92-1.28l5.93-36.2c0.1-0.61,0.67-1.02,1.28-0.92
				c0.61,0.1,1.02,0.67,0.92,1.28l-5.93,36.2C18,42.61,17.53,43,16.99,43z"/>
		</g>
		<g>
			<path class="st0Negroni" d="M2.8,31.38c-0.45,0-0.87-0.27-1.04-0.72c-0.22-0.57,0.07-1.22,0.65-1.43l34.32-12.96
				c0.57-0.22,1.21,0.07,1.43,0.65c0.22,0.57-0.07,1.22-0.65,1.43L3.2,31.31C3.07,31.36,2.93,31.38,2.8,31.38z"/>
		</g>
		<g>
			<path class="st0Negroni" d="M34.15,36.52c-0.25,0-0.5-0.08-0.7-0.25L5.07,13.03c-0.48-0.39-0.54-1.09-0.16-1.56
				C5.3,10.99,6,10.92,6.47,11.31l28.38,23.24c0.48,0.39,0.54,1.09,0.16,1.56C34.79,36.38,34.47,36.52,34.15,36.52z"/>
		</g>
	</g>
</g>
</svg>
