<?xml version="1.0" encoding="utf-8"?>
<!-- Generator: Adobe Illustrator 27.0.0, SVG Export Plug-In . SVG Version: 6.00 Build 0)  -->
<svg version="1.1" id="Layer_1" xmlns="http://www.w3.org/2000/svg" xmlns:xlink="http://www.w3.org/1999/xlink" x="0px" y="0px"
	 viewBox="0 0 100 100" style="enable-background:new 0 0 100 100;" xml:space="preserve">
<style type="text/css">
	.st0PinaColada{fill:#272628;}
	.st1PinaColada{fill:#FFFFFF;}
	.st2PinaColada{fill:#F5BA1F;}
	.st3PinaColada{fill:#2B4921;}
	.st4{fill:#ED2024;stroke:#272628;stroke-miterlimit:10;}
</style>
<g>
	<g>
		<path class="st0PinaColada" d="M67.59,92.98c-4.52-2.65-9.23-3.99-13.98-3.99c-8.11,0-13.47,3.87-13.7,4.04c-0.19,0.13-0.3,0.35-0.3,0.59
			c0,0.23,0.11,0.45,0.29,0.59c4.4,3.32,9.05,5,13.84,5c8.14,0,13.73-4.83,13.96-5.03c0.18-0.16,0.28-0.39,0.25-0.63
			C67.93,93.32,67.8,93.1,67.59,92.98z M53.74,97.72c-4.15,0-8.2-1.36-12.07-4.06c1.78-1.04,6.15-3.19,11.94-3.19
			c4.15,0,8.27,1.09,12.27,3.25C64.08,95,59.57,97.72,53.74,97.72z"/>
		<path class="st1PinaColada" d="M65.88,93.72c-1.8,1.28-6.31,4-12.14,4c-4.15,0-8.2-1.36-12.07-4.06c1.78-1.04,6.15-3.19,11.94-3.19
			C57.76,90.47,61.88,91.56,65.88,93.72z"/>
	</g>
	<g>
		<path class="st0PinaColada" d="M53.78,94.84c-0.41,0-0.74-0.33-0.74-0.74V76.71c0-0.41,0.33-0.74,0.74-0.74c0.41,0,0.74,0.33,0.74,0.74V94.1
			C54.52,94.51,54.19,94.84,53.78,94.84z"/>
	</g>
	<g>
		<path class="st0PinaColada" d="M68.11,16.54c0-0.04-0.01-0.07-0.03-0.11c-0.03-0.05-0.06-0.11-0.09-0.16c-0.04-0.05-0.09-0.1-0.14-0.14
			c-0.05-0.04-0.11-0.07-0.17-0.1c-0.03-0.01-0.06-0.02-0.09-0.03c-0.03-0.02-0.05-0.02-0.06-0.02c-4.22-1.74-8.76-2.62-13.49-2.62
			c-7.84,0-13.51,2.39-14.12,2.65c-0.23,0.08-0.42,0.29-0.47,0.55c-0.01,0.04-0.02,0.08-0.02,0.12c-0.01,0.28,0.14,0.55,0.39,0.68
			c0.3,0.16,0.6,0.32,0.9,0.46c4.24,2.15,8.65,3.23,13.14,3.23c6.33,0,11.07-2.14,13-3.17c0.56-0.31,0.89-0.52,0.94-0.55
			c0.23-0.15,0.36-0.42,0.33-0.69C68.12,16.6,68.12,16.57,68.11,16.54z M53.86,19.57c-4.04,0-8.02-0.93-11.86-2.76
			c2.2-0.75,6.6-1.97,12.04-1.97c4.04,0,7.94,0.67,11.61,1.99C63.59,17.85,59.32,19.57,53.86,19.57z"/>
		<path class="st1PinaColada" d="M65.65,16.83c-2.06,1.02-6.33,2.74-11.79,2.74c-4.04,0-8.02-0.93-11.86-2.76c2.2-0.75,6.6-1.97,12.04-1.97
			C58.08,14.84,61.98,15.51,65.65,16.83z"/>
	</g>
	<g>
		<path class="st1PinaColada" d="M63.43,71.45c-2.46,3-5.7,4.52-9.65,4.52c-3.94,0-7.19-1.52-9.64-4.52c-10.31-12.59-4.55-47.4-3.42-53.63
			c4.24,2.15,8.65,3.23,13.14,3.23c6.33,0,11.07-2.14,13-3.17C68.02,24.28,73.7,58.9,63.43,71.45z"/>
		<path class="st0PinaColada" d="M64.57,72.39c-2.75,3.36-6.38,5.06-10.79,5.06c-4.41,0-8.04-1.7-10.79-5.06
			c-11.73-14.32-3.88-54.14-3.54-55.83c0.05-0.26,0.24-0.47,0.47-0.55c0.13-0.04,0.26-0.06,0.4-0.03c0.4,0.08,0.66,0.48,0.58,0.88
			c-0.01,0.03-0.07,0.37-0.18,0.96c-1.13,6.23-6.89,41.04,3.42,53.63c2.45,3,5.7,4.52,9.64,4.52c3.95,0,7.19-1.52,9.65-4.52
			c10.27-12.55,4.59-47.17,3.43-53.57c-0.11-0.63-0.18-0.98-0.19-1.02c-0.08-0.4,0.18-0.8,0.58-0.88c0.09-0.02,0.18-0.02,0.28,0
			c0.01,0,0.03,0,0.06,0.02c0.03,0.01,0.06,0.02,0.09,0.03c0.06,0.03,0.12,0.06,0.17,0.1c0.05,0.04,0.1,0.09,0.14,0.14
			c0.03,0.05,0.06,0.11,0.09,0.16c0.02,0.04,0.03,0.07,0.03,0.11c0.01,0.01,0.01,0.01,0.01,0.02C68.46,18.25,76.3,58.07,64.57,72.39
			z"/>
	</g>
	<path class="st2PinaColada" d="M42.67,33.15c-1.18,12.98-1.04,28.89,4.58,35.76c1.7,2.08,3.78,3.04,6.53,3.04c2.76,0,4.83-0.97,6.53-3.04
		c5.62-6.86,5.76-22.78,4.58-35.76H42.67z"/>
	<g>
		<path class="st0PinaColada" d="M80.38,4.31c-0.16-0.17-0.39-0.25-0.63-0.22c-5.85,0.77-9.09,3.1-10.88,5.56c-0.68,0.93-1.15,1.87-1.48,2.76
			c-0.19,0.5-0.33,0.98-0.42,1.42c0,0-0.01,0.01-0.01,0.02c-0.31,1.34-0.31,2.37-0.29,2.74v0.14c0.03,0.35,0.29,0.62,0.63,0.67
			c0.04,0,0.39,0.05,0.96,0.05c2.36,0,10.22-0.9,12.31-12.5C80.62,4.72,80.54,4.48,80.38,4.31z M73.77,14.3
			c-2.09,1.41-4.23,1.67-5.51,1.67h-0.13c0.01-0.39,0.05-0.93,0.18-1.57c0-0.01,0-0.02,0.01-0.04c0.11-0.52,0.27-1.11,0.51-1.72
			C69.89,10,72.5,6.83,78.91,5.71C77.88,10.32,75.85,12.89,73.77,14.3z"/>
		<path class="st3PinaColada" d="M78.91,5.71c-1.03,4.61-3.06,7.18-5.14,8.59c-2.09,1.41-4.23,1.67-5.51,1.67h-0.13
			c0.01-0.39,0.05-0.93,0.18-1.57c0-0.01,0-0.02,0.01-0.04c0.2-0.49,0.39-1.07,0.51-1.72C69.89,10,72.5,6.83,78.91,5.71z"/>
	</g>
	<g>
		<path class="st0PinaColada" d="M68.87,9.65c-0.34-2.08-1.49-4.48-4.22-7.01C64.47,2.48,64.23,2.41,64,2.46c-0.23,0.04-0.43,0.2-0.53,0.41
			c-4.53,9.72,2.76,13.6,2.83,13.64c0.11,0.05,0.22,0.08,0.34,0.08h0.03c0.2-0.01,0.4-0.1,0.53-0.26c0.02-0.02,0.61-0.73,1.11-1.93
			c0-0.01,0-0.02,0.01-0.04c0.2-0.49,0.39-1.07,0.51-1.72C69,11.76,69.05,10.75,68.87,9.65z M66.97,13.83c0,0-0.01,0.01-0.01,0.02
			c-0.17,0.41-0.36,0.76-0.52,1.01c-1.35-0.96-4.57-4.04-2.04-10.39c3.04,3.15,3.37,5.96,2.99,7.94
			C67.29,12.95,67.14,13.42,66.97,13.83z"/>
		<path class="st3PinaColada" d="M67.39,12.41c-0.19,0.5-0.33,0.98-0.42,1.42c0,0-0.01,0.01-0.01,0.02c-0.17,0.41-0.36,0.76-0.52,1.01
			c-1.35-0.96-4.57-4.04-2.04-10.39C67.44,7.62,67.77,10.43,67.39,12.41z"/>
	</g>
	<g>
		<path class="st0PinaColada" d="M59.26,60.85c-0.33,0-0.63-0.22-0.72-0.56L43.79,2.87L30.63,8.01c-0.38,0.15-0.81-0.04-0.96-0.42
			c-0.15-0.38,0.04-0.81,0.42-0.96l13.94-5.44c0.2-0.08,0.42-0.07,0.61,0.03c0.19,0.1,0.33,0.27,0.38,0.48l14.96,58.23
			c0.1,0.4-0.14,0.8-0.53,0.9C59.38,60.84,59.32,60.85,59.26,60.85z"/>
	</g>
	<path class="st4" d="M36.79,16.12c-0.72-2.01,0.38-4.2,2.46-4.89c2.08-0.7,4.35,0.37,5.08,2.37c0.72,2.01-0.38,4.2-2.46,4.89
		C39.78,19.19,37.51,18.12,36.79,16.12z"/>
</g>
</svg>
